<?xml version="1.0" standalone="no"?>
<!DOCTYPE svg PUBLIC "-//W3C//DTD SVG 20010904//EN"
 "http://www.w3.org/TR/2001/REC-SVG-20010904/DTD/svg10.dtd">
<svg version="1.0" xmlns="http://www.w3.org/2000/svg"
 width="925.000000pt" height="519.000000pt" viewBox="0 0 925.000000 519.000000"
 preserveAspectRatio="xMidYMid meet">

<g transform="translate(0.000000,519.000000) scale(0.100000,-0.100000)"
fill="#000000" stroke="none">
<path d="M4130 3960 c-223 -39 -350 -191 -338 -404 6 -96 32 -160 91 -219 54
-54 123 -83 280 -117 141 -30 209 -57 227 -89 5 -11 10 -40 10 -64 0 -81 -60
-127 -167 -127 -102 0 -173 58 -173 141 l0 39 -141 0 -142 0 6 -62 c11 -142
78 -243 200 -303 133 -65 322 -71 472 -14 84 33 175 122 205 204 19 51 21 75
18 160 -5 120 -30 179 -104 243 -56 50 -123 76 -276 107 -139 29 -178 44 -206
80 -44 56 -16 152 53 181 45 18 148 18 184 -1 45 -23 78 -69 85 -119 l7 -46
139 0 140 0 -6 48 c-14 123 -40 185 -104 250 -97 96 -285 142 -460 112z"/>
<path d="M4877 3953 c-4 -3 -7 -282 -7 -620 l0 -613 485 0 485 0 0 120 0 120
-355 0 -355 0 0 130 0 130 300 0 300 0 0 115 0 115 -297 2 -298 3 0 135 0 135
353 3 352 2 0 115 0 115 -478 0 c-263 0 -482 -3 -485 -7z"/>
<path d="M1300 3897 c0 -12 47 -231 105 -487 57 -255 102 -466 100 -469 -3 -2
-18 25 -34 60 -104 228 -444 905 -456 907 -12 3 -15 -7 -15 -44 0 -41 33 -115
280 -617 154 -314 279 -571 278 -573 -2 -1 -124 135 -271 302 -148 167 -273
304 -278 304 -5 0 -9 -18 -9 -39 0 -38 15 -56 300 -378 214 -241 304 -349 312
-376 6 -20 9 -40 6 -42 -3 -3 -137 85 -297 195 -161 111 -299 204 -307 207
-20 7 -19 -50 1 -71 8 -8 154 -110 324 -226 289 -197 337 -237 315 -260 -3 -3
-145 42 -316 100 -170 58 -315 105 -321 105 -7 0 -12 -13 -12 -30 l0 -29 337
-114 c455 -154 454 -152 17 -152 -353 0 -356 0 -329 -49 10 -21 17 -21 340
-21 181 0 331 -3 333 -7 3 -5 8 -22 11 -39 l7 -32 -158 -37 c-87 -21 -224 -53
-305 -72 -151 -36 -165 -44 -130 -77 18 -15 37 -12 308 52 159 38 292 66 296
63 4 -3 13 -34 21 -68 l14 -62 -204 -122 c-171 -102 -203 -126 -201 -143 6
-45 47 -30 233 83 99 60 182 108 186 105 3 -2 12 -31 18 -65 7 -33 15 -67 17
-74 3 -8 -37 -59 -90 -116 -53 -57 -96 -107 -96 -111 0 -5 12 -14 27 -21 25
-11 29 -9 103 71 l77 83 24 -108 c23 -98 27 -109 52 -117 14 -5 30 -7 33 -3 6
6 -39 236 -53 273 -4 10 129 164 149 172 4 2 32 -45 61 -105 l55 -108 -59
-115 c-32 -63 -58 -120 -58 -127 -1 -20 39 -26 58 -9 9 8 32 47 51 86 19 38
36 70 39 70 3 0 24 -34 46 -76 22 -42 47 -80 57 -85 20 -11 48 -2 48 15 0 7
-27 63 -59 126 l-59 114 54 109 c30 59 59 107 63 105 5 -2 41 -38 81 -80 l72
-78 -31 -134 c-17 -74 -31 -139 -31 -145 0 -15 45 -14 58 2 6 7 20 55 32 107
12 52 23 97 26 99 3 3 38 -30 78 -74 70 -76 74 -79 99 -68 15 7 27 17 27 22 0
5 -42 55 -94 111 l-93 101 17 75 c10 41 19 77 21 79 3 2 85 -46 184 -106 99
-60 190 -109 201 -109 30 0 47 22 31 42 -6 8 -97 66 -201 128 -103 63 -190
119 -192 125 -3 6 1 38 9 71 11 49 16 58 32 56 11 -2 143 -32 294 -68 257 -60
276 -63 293 -47 15 13 25 43 15 43 -7 0 -602 141 -604 144 -1 1 2 19 8 39 l10
37 328 0 c349 0 358 1 349 47 -3 17 -25 18 -331 21 -313 2 -327 3 -327 21 0
16 53 37 338 133 264 88 338 117 340 131 10 50 2 49 -320 -59 -172 -57 -318
-104 -324 -104 -8 0 -10 9 -6 25 5 18 89 81 327 243 314 215 320 220 323 256
2 20 0 36 -5 36 -4 0 -142 -93 -306 -206 -165 -113 -301 -203 -304 -201 -2 3
1 23 7 45 8 30 45 79 143 189 503 563 467 519 467 563 0 22 -4 40 -8 40 -6 0
-403 -441 -530 -589 l-22 -26 9 25 c5 14 130 268 277 565 235 476 268 547 272
598 3 45 1 57 -10 57 -8 0 -103 -184 -248 -481 -129 -265 -236 -477 -237 -473
-2 5 44 221 101 479 60 269 101 474 96 479 -5 5 -20 6 -33 2 -19 -4 -26 -14
-31 -43 -4 -21 -50 -238 -104 -483 l-97 -445 -5 485 c-3 267 -6 486 -8 488 -1
2 -14 2 -29 0 l-28 -3 -6 -625 c-6 -700 -3 -673 -81 -823 -70 -133 -195 -237
-332 -273 -70 -19 -210 -18 -277 2 -91 27 -165 73 -232 143 -71 76 -116 155
-148 261 -23 74 -23 87 -28 695 -6 593 -7 620 -25 623 -10 2 -23 -1 -30 -8 -8
-8 -12 -148 -16 -483 l-5 -472 -99 465 c-54 256 -103 473 -108 483 -5 9 -20
17 -33 17 -19 0 -25 -5 -25 -23z m574 -1814 c8 -19 -5 -29 -52 -38 -39 -7 -37
-8 -46 28 -6 27 -6 27 43 27 36 0 50 -4 55 -17z m732 -5 c-3 -13 -6 -26 -6
-30 0 -11 -18 -10 -63 3 -33 9 -36 12 -27 29 8 15 21 20 57 20 42 0 45 -2 39
-22z m-526 -58 c0 -5 -16 -18 -36 -31 -30 -18 -38 -19 -45 -8 -16 26 -9 37 29
46 38 10 52 8 52 -7z m320 -10 c0 -3 -6 -14 -13 -24 -12 -17 -15 -17 -50 4
-36 21 -43 31 -32 42 7 7 95 -13 95 -22z m-467 -45 l16 -34 -58 -36 c-32 -19
-61 -35 -64 -35 -5 0 -21 78 -22 105 0 8 68 31 101 34 6 1 18 -15 27 -34z
m610 19 c20 -4 37 -10 37 -15 0 -15 -22 -109 -25 -109 -2 0 -31 16 -64 36
l-60 36 17 34 c13 28 21 34 37 30 11 -3 37 -9 58 -12z m-433 -79 c-41 -42 -46
-44 -57 -28 -19 25 -17 29 35 61 66 41 77 23 22 -33z m190 30 c44 -28 46 -33
27 -59 -12 -16 -16 -15 -50 23 -58 64 -47 80 23 36z m-61 -90 c22 -24 41 -49
41 -55 0 -14 -83 -180 -90 -180 -3 0 -26 40 -50 89 l-43 89 42 51 c24 28 46
51 51 51 4 0 26 -20 49 -45z m-239 -14 c12 -29 10 -32 -56 -106 -37 -41 -69
-75 -70 -75 -1 0 -8 26 -14 57 -7 32 -14 63 -17 69 -4 12 126 96 138 89 3 -3
12 -18 19 -34z m520 -31 c20 -15 20 -18 6 -79 -8 -35 -16 -64 -18 -66 -2 -1
-34 31 -72 72 l-69 74 17 35 16 35 50 -28 c28 -15 59 -35 70 -43z"/>
<path d="M6243 3696 c-25 -22 -28 -30 -28 -91 0 -61 3 -69 28 -91 55 -47 127
-25 148 45 34 114 -66 207 -148 137z m103 -27 c42 -47 14 -149 -42 -149 -36 0
-64 37 -64 85 0 73 63 111 106 64z"/>
<path d="M6440 3605 c0 -96 3 -115 15 -115 12 0 15 19 15 115 0 96 -3 115 -15
115 -12 0 -15 -19 -15 -115z"/>
<path d="M6520 3605 c0 -96 3 -115 15 -115 12 0 15 19 15 115 0 96 -3 115 -15
115 -12 0 -15 -19 -15 -115z"/>
<path d="M7120 3605 c0 -96 3 -115 15 -115 12 0 15 19 15 115 0 96 -3 115 -15
115 -12 0 -15 -19 -15 -115z"/>
<path d="M7042 3699 c2 -6 8 -10 13 -10 5 0 11 4 13 10 2 6 -4 11 -13 11 -9 0
-15 -5 -13 -11z"/>
<path d="M6606 3634 c-9 -8 -16 -20 -16 -25 0 -13 46 -59 60 -59 15 0 12 -27
-3 -33 -8 -3 -20 -1 -27 3 -20 12 -33 1 -19 -16 15 -18 63 -18 79 1 18 22 4
58 -30 77 -33 19 -32 43 1 35 23 -6 37 12 18 24 -21 13 -46 11 -63 -7z"/>
<path d="M6741 3624 c-30 -39 -24 -102 13 -126 19 -13 63 -9 76 7 18 21 8 28
-23 16 -35 -13 -59 10 -55 52 4 38 30 57 58 40 26 -17 40 5 15 24 -29 20 -62
16 -84 -13z"/>
<path d="M6890 3630 c-24 -24 -27 -86 -4 -118 10 -15 25 -22 49 -22 42 0 65
29 65 82 0 45 -28 78 -65 78 -14 0 -34 -9 -45 -20z m74 -26 c20 -53 -8 -104
-46 -83 -34 19 -20 99 17 99 13 0 26 -7 29 -16z"/>
<path d="M7040 3570 c0 -64 3 -80 15 -80 12 0 15 16 15 80 0 64 -3 80 -15 80
-12 0 -15 -16 -15 -80z"/>
<path d="M6210 3325 c0 -9 9 -15 25 -15 l25 0 0 -100 c0 -81 3 -100 15 -100
11 0 15 20 17 98 l3 97 28 3 c15 2 27 9 27 18 0 11 -16 14 -70 14 -56 0 -70
-3 -70 -15z"/>
<path d="M7250 3225 c0 -96 3 -115 15 -115 12 0 15 19 15 115 0 96 -3 115 -15
115 -12 0 -15 -19 -15 -115z"/>
<path d="M7492 3315 c-9 -18 -9 -25 0 -25 11 0 37 29 38 43 0 18 -28 5 -38
-18z"/>
<path d="M7870 3225 c0 -96 3 -115 15 -115 11 0 15 13 15 53 0 60 10 80 36 75
16 -3 20 -14 22 -66 2 -46 7 -62 17 -62 12 0 15 15 15 70 0 60 -3 71 -21 81
-16 8 -28 8 -45 0 -23 -10 -24 -9 -24 34 0 33 -4 45 -15 45 -12 0 -15 -19 -15
-115z"/>
<path d="M6525 3321 c-6 -11 9 -23 19 -14 9 9 7 23 -3 23 -6 0 -12 -4 -16 -9z"/>
<path d="M8050 3297 c0 -14 -7 -27 -15 -31 -19 -7 -20 -26 0 -26 10 0 15 -16
17 -62 3 -60 4 -63 31 -66 19 -2 27 1 27 12 0 9 -6 15 -12 14 -9 -2 -14 14
-16 50 -2 31 1 52 7 52 6 0 11 7 11 15 0 8 -4 15 -9 15 -5 0 -11 10 -13 22 -4
31 -28 35 -28 5z"/>
<path d="M6387 3258 c-38 -30 -43 -92 -9 -130 18 -21 75 -24 91 -5 16 20 3 27
-25 15 -19 -9 -28 -8 -44 7 -28 25 -16 35 42 35 50 0 50 0 44 28 -12 51 -63
76 -99 50z m61 -30 c21 -21 13 -28 -28 -28 -38 0 -40 2 -30 20 12 22 40 26 58
8z"/>
<path d="M6527 3263 c-4 -3 -7 -39 -7 -80 0 -58 3 -73 15 -73 12 0 15 16 15
80 0 73 -6 91 -23 73z"/>
<path d="M6621 3253 c-74 -60 7 -185 84 -130 24 18 3 32 -26 17 -40 -22 -74
33 -49 81 12 21 40 25 57 8 8 -8 13 -7 18 2 9 14 -20 39 -46 39 -9 0 -26 -8
-38 -17z"/>
<path d="M6750 3190 c0 -63 3 -80 15 -80 10 0 15 16 17 63 3 59 4 62 28 62 24
0 25 -3 28 -62 2 -47 7 -63 17 -63 22 0 21 123 -1 144 -18 19 -45 21 -62 4 -9
-9 -12 -9 -12 0 0 7 -7 12 -15 12 -12 0 -15 -16 -15 -80z"/>
<path d="M6935 3245 c-32 -31 -34 -86 -5 -115 23 -23 82 -27 99 -6 15 18 -5
34 -22 17 -15 -15 -33 -14 -51 5 -26 26 -18 34 34 34 47 0 50 2 50 25 0 30
-32 65 -60 65 -12 0 -32 -11 -45 -25z m73 -27 c3 -15 -4 -18 -32 -18 -38 0
-44 8 -24 28 17 17 52 11 56 -10z"/>
<path d="M7099 3251 c-30 -24 -33 -89 -5 -120 19 -21 61 -28 82 -13 40 26 41
109 1 137 -29 20 -50 19 -78 -4z m69 -23 c24 -24 5 -98 -25 -98 -15 0 -43 35
-43 52 0 48 40 74 68 46z"/>
<path d="M7348 3259 c-28 -16 -21 -27 13 -25 47 2 46 -18 -1 -37 -38 -15 -41
-19 -38 -49 3 -32 4 -33 56 -35 l52 -1 0 63 c0 84 -30 115 -82 84z m42 -114
c-16 -19 -36 -19 -43 -1 -6 15 7 30 33 38 19 6 25 -18 10 -37z"/>
<path d="M7480 3190 c0 -64 3 -80 15 -80 12 0 15 16 15 80 0 64 -3 80 -15 80
-12 0 -15 -16 -15 -80z"/>
<path d="M7570 3250 c-24 -24 -27 -86 -4 -118 10 -15 25 -22 49 -22 42 0 65
29 65 81 0 29 -6 43 -26 58 -33 26 -58 27 -84 1z m68 -22 c20 -20 15 -76 -9
-88 -28 -16 -49 3 -49 44 0 32 15 56 35 56 6 0 16 -5 23 -12z"/>
<path d="M7739 3251 c-30 -24 -33 -89 -5 -120 22 -24 64 -27 91 -8 24 18 3 32
-26 17 -40 -22 -74 33 -49 81 12 21 40 25 57 8 8 -8 13 -7 18 2 9 14 -20 39
-46 39 -9 0 -27 -9 -40 -19z"/>
<path d="M8168 3259 c-28 -16 -21 -27 13 -25 43 2 50 -22 9 -30 -41 -9 -66
-45 -50 -73 8 -17 20 -20 60 -20 l50 2 0 62 c0 82 -31 114 -82 84z m39 -117
c-17 -17 -51 -9 -45 11 3 6 15 18 29 24 20 11 25 10 27 -3 2 -9 -3 -23 -11
-32z"/>
<path d="M6629 2931 c-57 -57 -36 -181 34 -199 83 -22 147 62 117 153 -25 75
-99 97 -151 46z m101 -21 c26 -26 28 -105 3 -132 -23 -25 -68 -23 -87 4 -23
33 -21 99 4 126 26 27 54 28 80 2z"/>
<path d="M7107 2953 c-4 -3 -7 -21 -7 -39 0 -32 -2 -33 -29 -28 -40 8 -71 -23
-71 -74 0 -60 22 -82 80 -81 l50 2 0 113 c0 104 -5 126 -23 107z m-18 -107
c17 -20 10 -77 -11 -89 -24 -16 -48 8 -48 47 0 49 34 73 59 42z"/>
<path d="M7180 2845 c0 -96 3 -115 15 -115 11 0 15 13 15 54 0 56 17 83 45 72
11 -4 15 -21 15 -66 0 -47 3 -60 15 -60 12 0 15 14 15 70 0 60 -3 71 -21 81
-16 8 -28 8 -45 0 -23 -10 -24 -9 -24 34 0 33 -4 45 -15 45 -12 0 -15 -19 -15
-115z"/>
<path d="M6832 2941 c4 -13 18 -16 19 -4 0 4 -5 9 -11 12 -7 2 -11 -2 -8 -8z"/>
<path d="M7515 2941 c-6 -11 9 -23 19 -14 9 9 7 23 -3 23 -6 0 -12 -4 -16 -9z"/>
<path d="M7872 2941 c4 -13 18 -16 19 -4 0 4 -5 9 -11 12 -7 2 -11 -2 -8 -8z"/>
<path d="M8064 2923 c-3 -10 -10 -27 -16 -38 -8 -14 -8 -20 1 -23 6 -2 11 -25
11 -52 0 -64 7 -80 36 -80 27 0 32 15 9 24 -11 4 -15 20 -15 56 0 38 4 50 15
50 8 0 15 5 15 10 0 6 -7 10 -15 10 -10 0 -15 10 -15 30 0 33 -17 41 -26 13z"/>
<path d="M6233 2883 c-7 -2 -13 -11 -13 -18 0 -10 9 -12 35 -8 27 4 35 2 35
-10 0 -8 -12 -18 -27 -22 -38 -9 -53 -23 -53 -50 0 -32 18 -43 68 -42 l42 2 0
65 c0 38 -5 71 -12 78 -12 12 -52 15 -75 5z m55 -95 c-4 -31 -48 -39 -48 -9 0
17 12 25 43 30 5 0 7 -9 5 -21z"/>
<path d="M6411 2881 c-7 -5 -22 -6 -32 -4 -17 5 -19 -1 -19 -71 0 -61 3 -76
15 -76 11 0 15 13 15 54 0 60 19 88 48 69 12 -7 18 -27 20 -67 4 -80 22 -70
22 14 0 58 -3 71 -19 80 -24 12 -32 12 -50 1z"/>
<path d="M6951 2881 c-7 -5 -22 -6 -32 -4 -17 5 -19 -1 -19 -71 0 -61 3 -76
15 -76 11 0 15 12 15 49 0 47 17 81 41 81 5 0 9 7 9 15 0 17 -9 19 -29 6z"/>
<path d="M7373 2875 c-28 -19 -38 -68 -23 -105 15 -36 58 -53 90 -37 23 12 28
35 7 28 -37 -12 -46 -11 -62 6 -18 17 -17 18 33 21 50 3 52 4 52 33 0 32 -30
69 -58 69 -10 0 -27 -7 -39 -15z m65 -37 c3 -15 -4 -18 -33 -18 -33 0 -35 2
-25 21 14 24 53 22 58 -3z"/>
<path d="M7596 2868 c-18 -26 -7 -54 30 -70 13 -6 24 -17 24 -25 0 -19 -27
-28 -44 -14 -11 9 -16 9 -21 0 -16 -25 59 -41 83 -17 21 21 13 46 -23 74 -36
27 -38 50 -4 41 23 -6 37 12 18 24 -24 15 -47 10 -63 -13z"/>
<path d="M7735 2865 c-39 -38 -28 -117 17 -134 29 -10 78 6 78 26 0 9 -6 13
-15 9 -8 -3 -21 -9 -29 -12 -22 -9 -47 25 -44 59 4 38 30 57 58 40 26 -17 40
5 15 24 -28 19 -53 16 -80 -12z"/>
<path d="M7991 2881 c-7 -5 -22 -6 -32 -4 -17 5 -19 -1 -19 -71 0 -61 3 -76
15 -76 11 0 15 12 15 49 0 47 17 81 41 81 5 0 9 7 9 15 0 17 -9 19 -29 6z"/>
<path d="M6830 2805 c0 -60 3 -75 15 -75 12 0 15 15 15 75 0 60 -3 75 -15 75
-12 0 -15 -15 -15 -75z"/>
<path d="M7510 2805 c0 -60 3 -75 15 -75 12 0 15 15 15 75 0 60 -3 75 -15 75
-12 0 -15 -15 -15 -75z"/>
<path d="M7870 2805 c0 -60 3 -75 15 -75 12 0 15 15 15 75 0 60 -3 75 -15 75
-12 0 -15 -15 -15 -75z"/>
<path d="M3790 2410 l0 -120 155 0 155 0 0 -495 0 -495 135 0 135 0 0 495 0
495 155 0 155 0 0 120 0 120 -445 0 -445 0 0 -120z"/>
<path d="M4872 2098 c4 -384 6 -439 22 -488 76 -230 242 -340 496 -327 208 10
349 106 419 285 l26 67 3 448 3 447 -130 0 -130 0 -3 -433 -3 -434 -30 -48
c-41 -67 -97 -95 -184 -95 -106 1 -166 38 -209 130 -14 30 -17 92 -20 458 l-3
422 -130 0 -130 0 3 -432z"/>
<path d="M6230 2265 c-23 -28 -15 -67 21 -97 18 -15 37 -28 41 -28 4 0 8 -11
8 -25 0 -31 -25 -43 -53 -26 -14 10 -22 10 -31 1 -14 -15 18 -40 52 -40 84 0
93 93 12 135 -22 11 -30 23 -30 42 0 24 3 25 34 20 39 -6 51 0 35 20 -15 18
-74 17 -89 -2z"/>
<path d="M6820 2165 c0 -94 3 -115 15 -115 10 0 15 16 17 63 3 59 4 62 28 62
24 0 25 -3 28 -62 2 -47 7 -63 17 -63 12 0 15 15 15 63 0 78 -14 102 -58 95
-31 -4 -32 -4 -32 34 0 27 -4 38 -15 38 -12 0 -15 -19 -15 -115z"/>
<path d="M7060 2165 l0 -115 65 0 c50 0 65 3 65 14 0 11 -14 16 -47 18 -48 3
-48 3 -48 38 0 33 2 35 38 38 53 5 51 32 -3 32 -38 0 -40 2 -40 30 0 29 1 30
50 30 38 0 50 4 50 15 0 12 -14 15 -65 15 l-65 0 0 -115z"/>
<path d="M6720 2245 c0 -8 -6 -25 -12 -36 -10 -17 -10 -23 0 -26 7 -3 12 -24
12 -57 0 -29 5 -57 12 -64 17 -17 48 -15 48 3 0 8 -7 15 -15 15 -11 0 -15 12
-15 50 0 38 4 50 15 50 8 0 15 7 15 15 0 8 -7 15 -15 15 -9 0 -15 9 -15 25 0
16 -6 25 -15 25 -8 0 -15 -7 -15 -15z"/>
<path d="M7530 2240 c0 -11 -7 -23 -15 -26 -17 -7 -21 -34 -5 -34 6 0 10 -21
10 -46 0 -25 5 -54 10 -65 13 -22 50 -26 50 -4 0 8 -7 15 -15 15 -11 0 -15 12
-15 50 0 38 4 50 15 50 8 0 15 7 15 15 0 8 -7 15 -15 15 -9 0 -15 9 -15 25 0
14 -4 25 -10 25 -5 0 -10 -9 -10 -20z"/>
<path d="M6390 2190 c-45 -45 -14 -140 45 -140 38 0 65 33 65 80 0 47 -27 80
-65 80 -14 0 -34 -9 -45 -20z m75 -60 c0 -43 -1 -45 -30 -45 -27 0 -30 4 -33
33 -5 50 4 64 35 60 26 -3 28 -6 28 -48z"/>
<path d="M6540 2146 c0 -79 12 -94 75 -94 l45 1 0 79 c0 61 -3 78 -15 78 -10
0 -15 -16 -17 -62 -3 -60 -4 -63 -28 -63 -24 0 -25 3 -28 63 -2 46 -7 62 -17
62 -12 0 -15 -15 -15 -64z"/>
<path d="M7242 2198 c-20 -20 -13 -27 23 -21 27 4 35 2 35 -10 0 -8 -12 -18
-27 -22 -38 -9 -53 -23 -53 -50 0 -32 19 -44 68 -43 l42 0 0 67 c0 73 -10 91
-50 91 -14 0 -31 -5 -38 -12z m56 -90 c-2 -15 -11 -24 -25 -26 -28 -4 -31 22
-5 37 26 16 34 13 30 -11z"/>
<path d="M7392 2198 c-22 -22 -14 -57 18 -73 40 -21 40 -47 0 -43 -37 4 -42
-14 -6 -27 35 -12 60 3 64 39 3 20 -3 30 -27 44 -34 19 -37 46 -6 48 36 2 40
4 25 14 -21 13 -54 12 -68 -2z"/>
<path d="M6210 1885 c0 -9 9 -15 25 -15 l25 0 0 -100 c0 -82 3 -100 15 -100
12 0 15 18 15 100 l0 100 30 0 c20 0 30 5 30 15 0 12 -14 15 -70 15 -56 0 -70
-3 -70 -15z"/>
<path d="M6680 1785 c0 -94 3 -115 15 -115 10 0 15 16 17 63 3 59 4 62 28 62
24 0 25 -3 28 -62 2 -49 6 -63 19 -63 13 0 15 12 11 71 -4 77 -15 92 -60 86
-26 -3 -28 -1 -28 35 0 27 -4 38 -15 38 -12 0 -15 -19 -15 -115z"/>
<path d="M7180 1785 c0 -96 3 -115 15 -115 12 0 15 19 15 115 0 96 -3 115 -15
115 -12 0 -15 -19 -15 -115z"/>
<path d="M7595 1890 c-4 -6 -3 -16 3 -22 6 -6 12 -6 17 2 4 6 3 16 -3 22 -6 6
-12 6 -17 -2z"/>
<path d="M7970 1785 c0 -96 3 -115 15 -115 12 0 15 19 15 115 0 96 -3 115 -15
115 -12 0 -15 -19 -15 -115z"/>
<path d="M6379 1811 c-30 -24 -33 -89 -5 -120 21 -23 75 -28 94 -9 21 21 13
26 -27 21 -33 -5 -41 -2 -50 16 -11 20 -10 21 45 21 l56 0 -7 28 c-15 60 -62
79 -106 43z m70 -24 c14 -18 4 -27 -31 -27 -26 0 -37 17 -21 33 11 12 40 8 52
-6z"/>
<path d="M6540 1810 c-13 -13 -20 -33 -20 -60 0 -64 48 -98 101 -70 32 17 22
29 -23 27 -38 -2 -43 1 -46 22 -2 12 -1 34 3 48 5 23 9 25 45 19 43 -7 54 6
21 24 -30 16 -59 12 -81 -10z"/>
<path d="M6840 1748 c0 -63 3 -78 15 -78 11 0 15 12 15 49 0 65 7 81 36 81 23
0 24 -3 24 -65 0 -51 3 -65 15 -65 12 0 15 14 15 69 0 43 -5 72 -12 79 -7 6
-34 10 -60 10 l-48 -1 0 -79z"/>
<path d="M7024 1809 c-11 -13 -19 -35 -19 -59 0 -47 27 -80 66 -80 34 0 69 41
69 80 0 66 -75 104 -116 59z m75 -23 c17 -20 10 -67 -11 -80 -38 -23 -72 29
-48 73 12 24 42 27 59 7z"/>
<path d="M7270 1810 c-45 -45 -14 -140 45 -140 38 0 65 33 65 80 0 47 -27 80
-65 80 -14 0 -34 -9 -45 -20z m75 -60 c0 -43 -1 -45 -30 -45 -24 0 -31 5 -33
24 -2 12 -1 34 3 48 4 19 11 24 33 21 25 -3 27 -6 27 -48z"/>
<path d="M7437 1812 c-22 -25 -28 -53 -19 -87 10 -37 47 -58 75 -44 25 14 33
4 19 -26 -12 -26 -54 -35 -67 -15 -4 6 -11 8 -16 5 -31 -20 33 -51 73 -36 34
13 48 56 48 146 l0 72 -49 1 c-35 0 -53 -4 -64 -16z m75 -37 c15 -33 -3 -75
-32 -75 -12 0 -25 10 -32 25 -15 33 3 75 32 75 12 0 25 -10 32 -25z"/>
<path d="M7590 1750 c0 -64 3 -80 15 -80 12 0 15 16 15 80 0 64 -3 80 -15 80
-12 0 -15 -16 -15 -80z"/>
<path d="M7686 1815 c-34 -34 -32 -116 4 -135 25 -14 63 -13 78 2 21 21 13 28
-28 22 -36 -6 -40 -4 -45 19 -14 54 17 93 55 70 26 -17 40 5 15 24 -25 17 -60
17 -79 -2z"/>
<path d="M7832 1818 c-20 -20 -13 -27 23 -21 28 4 35 2 35 -11 0 -9 -12 -18
-27 -22 -39 -9 -53 -23 -53 -49 0 -32 19 -44 68 -43 l42 0 0 67 c0 73 -10 91
-50 91 -14 0 -31 -5 -38 -12z m45 -115 c-17 -17 -37 -10 -37 13 0 21 44 36 48
17 2 -9 -3 -22 -11 -30z"/>
<path d="M6210 1425 c0 -110 14 -135 74 -135 58 0 76 34 76 141 0 72 -3 89
-15 89 -12 0 -15 -16 -15 -81 0 -90 -10 -119 -43 -119 -39 0 -47 18 -47 112 0
72 -3 88 -15 88 -12 0 -15 -17 -15 -95z"/>
<path d="M6580 1500 c0 -5 5 -10 10 -10 6 0 10 5 10 10 0 6 -4 10 -10 10 -5 0
-10 -4 -10 -10z"/>
<path d="M7202 1501 c2 -7 7 -12 11 -12 12 1 9 15 -3 20 -7 2 -11 -2 -8 -8z"/>
<path d="M7290 1480 c0 -11 -7 -23 -15 -26 -17 -7 -21 -34 -5 -34 6 0 10 -18
10 -39 0 -61 15 -91 45 -91 30 0 32 11 5 28 -25 16 -30 102 -5 102 8 0 15 7
15 15 0 8 -7 15 -15 15 -9 0 -15 9 -15 25 0 14 -4 25 -10 25 -5 0 -10 -9 -10
-20z"/>
<path d="M6410 1368 c0 -61 3 -78 15 -78 10 0 15 16 17 63 3 59 4 62 28 62 24
0 25 -3 28 -62 2 -47 7 -63 17 -63 12 0 15 15 15 64 0 79 -12 94 -75 94 l-45
-1 0 -79z"/>
<path d="M6580 1370 c0 -47 4 -80 10 -80 6 0 10 33 10 80 0 47 -4 80 -10 80
-6 0 -10 -33 -10 -80z"/>
<path d="M6640 1439 c0 -7 10 -43 22 -81 30 -91 49 -92 79 0 12 37 24 73 27
80 2 6 -3 12 -11 12 -11 0 -22 -19 -33 -55 -10 -30 -20 -52 -23 -49 -3 3 -13
26 -22 52 -14 43 -39 69 -39 41z"/>
<path d="M6815 1425 c-40 -39 -26 -119 23 -132 29 -7 77 8 71 22 -4 11 -15 11
-40 1 -16 -7 -49 16 -49 35 0 5 23 9 50 9 47 0 50 2 50 25 0 30 -32 65 -60 65
-12 0 -32 -11 -45 -25z m73 -27 c3 -15 -4 -18 -32 -18 -38 0 -44 8 -24 28 17
17 52 11 56 -10z"/>
<path d="M6960 1369 c0 -62 3 -79 15 -79 10 0 15 15 17 58 3 48 7 59 26 67 35
16 26 32 -18 32 l-40 0 0 -78z"/>
<path d="M7084 1442 c-24 -16 -24 -43 1 -68 13 -13 29 -24 35 -24 13 0 13 -27
0 -35 -5 -3 -18 -1 -28 4 -24 13 -36 3 -21 -16 15 -18 64 -17 79 2 18 22 4 58
-30 77 -33 19 -32 43 1 35 23 -6 37 12 18 24 -17 11 -40 11 -55 1z"/>
<path d="M7200 1371 c0 -66 3 -81 15 -81 13 0 15 13 13 77 -2 50 -7 78 -15 81
-10 3 -13 -17 -13 -77z"/>
<path d="M7370 1437 c0 -7 9 -40 20 -72 11 -32 20 -69 20 -83 0 -15 -7 -26
-20 -29 -11 -3 -20 -9 -20 -14 0 -16 29 -22 45 -9 13 11 75 182 75 208 0 31
-24 2 -40 -48 -18 -57 -19 -57 -43 14 -14 40 -37 61 -37 33z"/>
</g>
</svg>
